<svg id="visual" viewBox="0 0 900 600" width="900" height="600" xmlns="http://www.w3.org/2000/svg" xmlns:xlink="http://www.w3.org/1999/xlink" version="1.1"><g stroke-width="1" stroke-linejoin="bevel"><path d="M491 338L602 410L610 265Z" fill="#7425ff" stroke="#7425ff"></path><path d="M602 410L725 332L610 265Z" fill="#5602d5" stroke="#5602d5"></path><path d="M602 410L727 427L725 332Z" fill="#6101f1" stroke="#6101f1"></path><path d="M491 338L414 467L602 410Z" fill="#6101f1" stroke="#6101f1"></path><path d="M602 410L642 600L727 427Z" fill="#6101f1" stroke="#6101f1"></path><path d="M772 115L637 124L610 265Z" fill="#a067ff" stroke="#a067ff"></path><path d="M610 265L458 118L491 338Z" fill="#a067ff" stroke="#a067ff"></path><path d="M637 124L458 118L610 265Z" fill="#8039ff" stroke="#8039ff"></path><path d="M272 342L344 478L414 467Z" fill="#8c4aff" stroke="#8c4aff"></path><path d="M272 342L414 467L491 338Z" fill="#5b02e3" stroke="#5b02e3"></path><path d="M465 600L642 600L602 410Z" fill="#8039ff" stroke="#8039ff"></path><path d="M465 600L602 410L414 467Z" fill="#5602d5" stroke="#5602d5"></path><path d="M344 478L465 600L414 467Z" fill="#5602d5" stroke="#5602d5"></path><path d="M900 287L772 115L725 332Z" fill="#4b03ba" stroke="#4b03ba"></path><path d="M725 332L772 115L610 265Z" fill="#9659ff" stroke="#9659ff"></path><path d="M637 124L493 0L458 118Z" fill="#5602d5" stroke="#5602d5"></path><path d="M307 118L272 342L491 338Z" fill="#8c4aff" stroke="#8c4aff"></path><path d="M900 465L900 287L725 332Z" fill="#9659ff" stroke="#9659ff"></path><path d="M900 465L725 332L727 427Z" fill="#5003c7" stroke="#5003c7"></path><path d="M493 0L307 118L458 118Z" fill="#7425ff" stroke="#7425ff"></path><path d="M458 118L307 118L491 338Z" fill="#8c4aff" stroke="#8c4aff"></path><path d="M706 0L642 0L637 124Z" fill="#7425ff" stroke="#7425ff"></path><path d="M642 0L493 0L637 124Z" fill="#6600ff" stroke="#6600ff"></path><path d="M642 600L794 600L727 427Z" fill="#8c4aff" stroke="#8c4aff"></path><path d="M794 600L900 465L727 427Z" fill="#5602d5" stroke="#5602d5"></path><path d="M772 115L706 0L637 124Z" fill="#8039ff" stroke="#8039ff"></path><path d="M900 0L706 0L772 115Z" fill="#8c4aff" stroke="#8c4aff"></path><path d="M158 467L298 600L344 478Z" fill="#6600ff" stroke="#6600ff"></path><path d="M344 478L298 600L465 600Z" fill="#a067ff" stroke="#a067ff"></path><path d="M900 287L900 108L772 115Z" fill="#6600ff" stroke="#6600ff"></path><path d="M794 600L900 600L900 465Z" fill="#5003c7" stroke="#5003c7"></path><path d="M269 0L192 143L307 118Z" fill="#a067ff" stroke="#a067ff"></path><path d="M307 118L192 143L272 342Z" fill="#4b03ba" stroke="#4b03ba"></path><path d="M272 342L158 467L344 478Z" fill="#9659ff" stroke="#9659ff"></path><path d="M129 333L158 467L272 342Z" fill="#5602d5" stroke="#5602d5"></path><path d="M192 143L129 333L272 342Z" fill="#a067ff" stroke="#a067ff"></path><path d="M493 0L269 0L307 118Z" fill="#8039ff" stroke="#8039ff"></path><path d="M900 108L900 0L772 115Z" fill="#8c4aff" stroke="#8c4aff"></path><path d="M0 484L121 600L158 467Z" fill="#a067ff" stroke="#a067ff"></path><path d="M158 467L121 600L298 600Z" fill="#5b02e3" stroke="#5b02e3"></path><path d="M0 182L0 294L129 333Z" fill="#5003c7" stroke="#5003c7"></path><path d="M269 0L166 0L192 143Z" fill="#8039ff" stroke="#8039ff"></path><path d="M0 182L129 333L192 143Z" fill="#8039ff" stroke="#8039ff"></path><path d="M129 333L0 484L158 467Z" fill="#5003c7" stroke="#5003c7"></path><path d="M0 294L0 484L129 333Z" fill="#5b02e3" stroke="#5b02e3"></path><path d="M0 0L0 182L192 143Z" fill="#a067ff" stroke="#a067ff"></path><path d="M0 484L0 600L121 600Z" fill="#4b03ba" stroke="#4b03ba"></path><path d="M166 0L0 0L192 143Z" fill="#5602d5" stroke="#5602d5"></path></g></svg>